<svg width="180px" height="180px" viewBox="0 0 1 1.5" version="1.1" xmlns="http://www.w3.org/2000/svg">
<g stroke="black" stroke-width="0.00416667" fill="none">
<line x1="0.04" y1="0.5" x2="0.04" y2="0.585" />
<line x1="0.04" y1="0.585" x2="0.0847832" y2="0.737265" />
<line x1="0.045" y1="0.585" x2="0.0900177" y2="0.733278" />
<line x1="0.045" y1="0.585" x2="0.045" y2="0.5" />
<line x1="0.26" y1="0.815" x2="0.26" y2="0.845" />
<line x1="0.26" y1="0.8" x2="0.26" y2="0.745" />
<line x1="0.26" y1="0.845" x2="0.257696" y2="0.845106" />
<line x1="0.257696" y1="0.845106" x2="0.255407" y2="0.845426" />
<line x1="0.255407" y1="0.845426" x2="0.253162" y2="0.845954" />
<line x1="0.253162" y1="0.845954" x2="0.25097" y2="0.846688" />
<line x1="0.25097" y1="0.846688" x2="0.24886" y2="0.84762" />
<line x1="0.24886" y1="0.84762" x2="0.246841" y2="0.848744" />
<line x1="0.246841" y1="0.848744" x2="0.244934" y2="0.85005" />
<line x1="0.244934" y1="0.85005" x2="0.24316" y2="0.851524" />
<line x1="0.24316" y1="0.851524" x2="0.241525" y2="0.853158" />
<line x1="0.241525" y1="0.853158" x2="0.240052" y2="0.854932" />
<line x1="0.240052" y1="0.854932" x2="0.238745" y2="0.856839" />
<line x1="0.238745" y1="0.856839" x2="0.237621" y2="0.858858" />
<line x1="0.237621" y1="0.858858" x2="0.236689" y2="0.860968" />
<line x1="0.236689" y1="0.860968" x2="0.235954" y2="0.863159" />
<line x1="0.235954" y1="0.863159" x2="0.235426" y2="0.865405" />
<line x1="0.235426" y1="0.865405" x2="0.235107" y2="0.867694" />
<line x1="0.235107" y1="0.867694" x2="0.235" y2="0.870002" />
<line x1="0.235" y1="0.870002" x2="0.235106" y2="0.872306" />
<line x1="0.235106" y1="0.872306" x2="0.235426" y2="0.874595" />
<line x1="0.235426" y1="0.874595" x2="0.235954" y2="0.876841" />
<line x1="0.235954" y1="0.876841" x2="0.236688" y2="0.879032" />
<line x1="0.236688" y1="0.879032" x2="0.23762" y2="0.881142" />
<line x1="0.23762" y1="0.881142" x2="0.238744" y2="0.883161" />
<line x1="0.238744" y1="0.883161" x2="0.24005" y2="0.885068" />
<line x1="0.24005" y1="0.885068" x2="0.241524" y2="0.886842" />
<line x1="0.241524" y1="0.886842" x2="0.243158" y2="0.888476" />
<line x1="0.243158" y1="0.888476" x2="0.244932" y2="0.88995" />
<line x1="0.244932" y1="0.88995" x2="0.246839" y2="0.891256" />
<line x1="0.246839" y1="0.891256" x2="0.248858" y2="0.89238" />
<line x1="0.248858" y1="0.89238" x2="0.250968" y2="0.893312" />
<line x1="0.250968" y1="0.893312" x2="0.253159" y2="0.894046" />
<line x1="0.253159" y1="0.894046" x2="0.255405" y2="0.894574" />
<line x1="0.255405" y1="0.894574" x2="0.257694" y2="0.894894" />
<line x1="0.257694" y1="0.894894" x2="0.259998" y2="0.895" />
<line x1="0.260002" y1="0.895" x2="0.262306" y2="0.894893" />
<line x1="0.262306" y1="0.894893" x2="0.264595" y2="0.894574" />
<line x1="0.264595" y1="0.894574" x2="0.266841" y2="0.894046" />
<line x1="0.266841" y1="0.894046" x2="0.269032" y2="0.893311" />
<line x1="0.269032" y1="0.893311" x2="0.271142" y2="0.892379" />
<line x1="0.271142" y1="0.892379" x2="0.273161" y2="0.891255" />
<line x1="0.273161" y1="0.891255" x2="0.275068" y2="0.889948" />
<line x1="0.275068" y1="0.889948" x2="0.276842" y2="0.888475" />
<line x1="0.276842" y1="0.888475" x2="0.278476" y2="0.88684" />
<line x1="0.278476" y1="0.88684" x2="0.27995" y2="0.885066" />
<line x1="0.27995" y1="0.885066" x2="0.281256" y2="0.883159" />
<line x1="0.281256" y1="0.883159" x2="0.28238" y2="0.88114" />
<line x1="0.28238" y1="0.88114" x2="0.283312" y2="0.87903" />
<line x1="0.283312" y1="0.87903" x2="0.284046" y2="0.876838" />
<line x1="0.284046" y1="0.876838" x2="0.284574" y2="0.874593" />
<line x1="0.284574" y1="0.874593" x2="0.284894" y2="0.872304" />
<line x1="0.284894" y1="0.872304" x2="0.285" y2="0.87" />
<line x1="0.285" y1="0.87" x2="0.285" y2="0.72" />
<line x1="0.285" y1="0.72" x2="0.284893" y2="0.717696" />
<line x1="0.284893" y1="0.717696" x2="0.284574" y2="0.715407" />
<line x1="0.284574" y1="0.715407" x2="0.284046" y2="0.713162" />
<line x1="0.284046" y1="0.713162" x2="0.283311" y2="0.71097" />
<line x1="0.283311" y1="0.71097" x2="0.282379" y2="0.70886" />
<line x1="0.282379" y1="0.70886" x2="0.281255" y2="0.706841" />
<line x1="0.281255" y1="0.706841" x2="0.279948" y2="0.704934" />
<line x1="0.279948" y1="0.704934" x2="0.278475" y2="0.70316" />
<line x1="0.278475" y1="0.70316" x2="0.27684" y2="0.701525" />
<line x1="0.27684" y1="0.701525" x2="0.275066" y2="0.700052" />
<line x1="0.275066" y1="0.700052" x2="0.273159" y2="0.698745" />
<line x1="0.273159" y1="0.698745" x2="0.27114" y2="0.697621" />
<line x1="0.27114" y1="0.697621" x2="0.26903" y2="0.696689" />
<line x1="0.26903" y1="0.696689" x2="0.266838" y2="0.695954" />
<line x1="0.266838" y1="0.695954" x2="0.264593" y2="0.695426" />
<line x1="0.264593" y1="0.695426" x2="0.262304" y2="0.695107" />
<line x1="0.262304" y1="0.695107" x2="0.26" y2="0.695" />
<line x1="0.26" y1="0.695" x2="0.257696" y2="0.695106" />
<line x1="0.257696" y1="0.695106" x2="0.255407" y2="0.695426" />
<line x1="0.255407" y1="0.695426" x2="0.253162" y2="0.695954" />
<line x1="0.253162" y1="0.695954" x2="0.25097" y2="0.696688" />
<line x1="0.25097" y1="0.696688" x2="0.24886" y2="0.69762" />
<line x1="0.24886" y1="0.69762" x2="0.246841" y2="0.698744" />
<line x1="0.246841" y1="0.698744" x2="0.244934" y2="0.70005" />
<line x1="0.244934" y1="0.70005" x2="0.24316" y2="0.701524" />
<line x1="0.24316" y1="0.701524" x2="0.241525" y2="0.703158" />
<line x1="0.241525" y1="0.703158" x2="0.240052" y2="0.704932" />
<line x1="0.240052" y1="0.704932" x2="0.238745" y2="0.706839" />
<line x1="0.238745" y1="0.706839" x2="0.237621" y2="0.708858" />
<line x1="0.237621" y1="0.708858" x2="0.236689" y2="0.710968" />
<line x1="0.236689" y1="0.710968" x2="0.235954" y2="0.713159" />
<line x1="0.235954" y1="0.713159" x2="0.235426" y2="0.715405" />
<line x1="0.235426" y1="0.715405" x2="0.235107" y2="0.717694" />
<line x1="0.235107" y1="0.717694" x2="0.235" y2="0.720002" />
<line x1="0.235" y1="0.720002" x2="0.235106" y2="0.722306" />
<line x1="0.235106" y1="0.722306" x2="0.235426" y2="0.724595" />
<line x1="0.235426" y1="0.724595" x2="0.235954" y2="0.726841" />
<line x1="0.235954" y1="0.726841" x2="0.236688" y2="0.729032" />
<line x1="0.236688" y1="0.729032" x2="0.23762" y2="0.731142" />
<line x1="0.23762" y1="0.731142" x2="0.238744" y2="0.733161" />
<line x1="0.238744" y1="0.733161" x2="0.24005" y2="0.735068" />
<line x1="0.24005" y1="0.735068" x2="0.241524" y2="0.736842" />
<line x1="0.241524" y1="0.736842" x2="0.243158" y2="0.738476" />
<line x1="0.243158" y1="0.738476" x2="0.244932" y2="0.73995" />
<line x1="0.244932" y1="0.73995" x2="0.246839" y2="0.741256" />
<line x1="0.246839" y1="0.741256" x2="0.248858" y2="0.74238" />
<line x1="0.248858" y1="0.74238" x2="0.250968" y2="0.743312" />
<line x1="0.250968" y1="0.743312" x2="0.253159" y2="0.744046" />
<line x1="0.253159" y1="0.744046" x2="0.255405" y2="0.744574" />
<line x1="0.255405" y1="0.744574" x2="0.257694" y2="0.744894" />
<line x1="0.257694" y1="0.744894" x2="0.260002" y2="0.745" />
<line x1="0.325" y1="0.985" x2="0.323157" y2="0.985085" />
<line x1="0.323157" y1="0.985085" x2="0.321326" y2="0.985341" />
<line x1="0.321326" y1="0.985341" x2="0.319529" y2="0.985763" />
<line x1="0.319529" y1="0.985763" x2="0.317776" y2="0.98635" />
<line x1="0.317776" y1="0.98635" x2="0.316088" y2="0.987096" />
<line x1="0.316088" y1="0.987096" x2="0.314473" y2="0.987995" />
<line x1="0.314473" y1="0.987995" x2="0.312947" y2="0.98904" />
<line x1="0.312947" y1="0.98904" x2="0.311528" y2="0.990219" />
<line x1="0.311528" y1="0.990219" x2="0.31022" y2="0.991526" />
<line x1="0.31022" y1="0.991526" x2="0.309041" y2="0.992946" />
<line x1="0.309041" y1="0.992946" x2="0.307996" y2="0.994471" />
<line x1="0.307996" y1="0.994471" x2="0.307097" y2="0.996087" />
<line x1="0.307097" y1="0.996087" x2="0.306351" y2="0.997774" />
<line x1="0.306351" y1="0.997774" x2="0.305764" y2="0.999528" />
<line x1="0.305764" y1="0.999528" x2="0.305341" y2="1.00132" />
<line x1="0.305341" y1="1.00132" x2="0.305085" y2="1.00315" />
<line x1="0.305085" y1="1.00315" x2="0.305" y2="1.005" />
<line x1="0.325002" y1="1.025" x2="0.326845" y2="1.02491" />
<line x1="0.326845" y1="1.02491" x2="0.328676" y2="1.02466" />
<line x1="0.328676" y1="1.02466" x2="0.330472" y2="1.02424" />
<line x1="0.330472" y1="1.02424" x2="0.332226" y2="1.02365" />
<line x1="0.332226" y1="1.02365" x2="0.333913" y2="1.0229" />
<line x1="0.333913" y1="1.0229" x2="0.335529" y2="1.022" />
<line x1="0.335529" y1="1.022" x2="0.337054" y2="1.02096" />
<line x1="0.337054" y1="1.02096" x2="0.338474" y2="1.01978" />
<line x1="0.338474" y1="1.01978" x2="0.339781" y2="1.01847" />
<line x1="0.339781" y1="1.01847" x2="0.34096" y2="1.01705" />
<line x1="0.34096" y1="1.01705" x2="0.342005" y2="1.01553" />
<line x1="0.342005" y1="1.01553" x2="0.342904" y2="1.01391" />
<line x1="0.342904" y1="1.01391" x2="0.34365" y2="1.01222" />
<line x1="0.34365" y1="1.01222" x2="0.344237" y2="1.01047" />
<line x1="0.344237" y1="1.01047" x2="0.344659" y2="1.00867" />
<line x1="0.344659" y1="1.00867" x2="0.344915" y2="1.00684" />
<line x1="0.344915" y1="1.00684" x2="0.345" y2="1.005" />
<line x1="0.305" y1="1.005" x2="0.305085" y2="1.00685" />
<line x1="0.305085" y1="1.00685" x2="0.305341" y2="1.00868" />
<line x1="0.305341" y1="1.00868" x2="0.305763" y2="1.01047" />
<line x1="0.305763" y1="1.01047" x2="0.30635" y2="1.01223" />
<line x1="0.30635" y1="1.01223" x2="0.307096" y2="1.01391" />
<line x1="0.307096" y1="1.01391" x2="0.307995" y2="1.01553" />
<line x1="0.307995" y1="1.01553" x2="0.30904" y2="1.01705" />
<line x1="0.30904" y1="1.01705" x2="0.310219" y2="1.01847" />
<line x1="0.310219" y1="1.01847" x2="0.311526" y2="1.01978" />
<line x1="0.311526" y1="1.01978" x2="0.312946" y2="1.02096" />
<line x1="0.312946" y1="1.02096" x2="0.314471" y2="1.022" />
<line x1="0.314471" y1="1.022" x2="0.316087" y2="1.0229" />
<line x1="0.316087" y1="1.0229" x2="0.317774" y2="1.02365" />
<line x1="0.317774" y1="1.02365" x2="0.319528" y2="1.02424" />
<line x1="0.319528" y1="1.02424" x2="0.321324" y2="1.02466" />
<line x1="0.321324" y1="1.02466" x2="0.323155" y2="1.02491" />
<line x1="0.323155" y1="1.02491" x2="0.324998" y2="1.025" />
<line x1="0.345" y1="0.85" x2="0.344957" y2="0.849078" />
<line x1="0.344957" y1="0.849078" x2="0.34483" y2="0.848163" />
<line x1="0.34483" y1="0.848163" x2="0.344618" y2="0.847265" />
<line x1="0.344618" y1="0.847265" x2="0.344324" y2="0.846388" />
<line x1="0.344324" y1="0.846388" x2="0.343952" y2="0.845544" />
<line x1="0.343952" y1="0.845544" x2="0.343502" y2="0.844736" />
<line x1="0.343502" y1="0.844736" x2="0.342979" y2="0.843974" />
<line x1="0.342979" y1="0.843974" x2="0.34239" y2="0.843264" />
<line x1="0.34239" y1="0.843264" x2="0.341736" y2="0.84261" />
<line x1="0.341736" y1="0.84261" x2="0.341026" y2="0.842021" />
<line x1="0.341026" y1="0.842021" x2="0.340264" y2="0.841498" />
<line x1="0.340264" y1="0.841498" x2="0.339456" y2="0.841048" />
<line x1="0.339456" y1="0.841048" x2="0.338612" y2="0.840676" />
<line x1="0.338612" y1="0.840676" x2="0.337735" y2="0.840382" />
<line x1="0.337735" y1="0.840382" x2="0.336837" y2="0.84017" />
<line x1="0.336837" y1="0.84017" x2="0.335922" y2="0.840043" />
<line x1="0.335922" y1="0.840043" x2="0.335" y2="0.84" />
<line x1="0.325" y1="0.85" x2="0.325" y2="0.945" />
<line x1="0.335" y1="0.84" x2="0.334078" y2="0.840043" />
<line x1="0.334078" y1="0.840043" x2="0.333163" y2="0.84017" />
<line x1="0.333163" y1="0.84017" x2="0.332265" y2="0.840381" />
<line x1="0.332265" y1="0.840381" x2="0.331388" y2="0.840675" />
<line x1="0.331388" y1="0.840675" x2="0.330544" y2="0.841048" />
<line x1="0.330544" y1="0.841048" x2="0.329736" y2="0.841498" />
<line x1="0.329736" y1="0.841498" x2="0.328974" y2="0.84202" />
<line x1="0.328974" y1="0.84202" x2="0.328264" y2="0.842609" />
<line x1="0.328264" y1="0.842609" x2="0.32761" y2="0.843263" />
<line x1="0.32761" y1="0.843263" x2="0.327021" y2="0.843973" />
<line x1="0.327021" y1="0.843973" x2="0.326498" y2="0.844736" />
<line x1="0.326498" y1="0.844736" x2="0.326048" y2="0.845543" />
<line x1="0.326048" y1="0.845543" x2="0.325676" y2="0.846387" />
<line x1="0.325676" y1="0.846387" x2="0.325382" y2="0.847264" />
<line x1="0.325382" y1="0.847264" x2="0.32517" y2="0.848162" />
<line x1="0.32517" y1="0.848162" x2="0.325043" y2="0.849077" />
<line x1="0.325043" y1="0.849077" x2="0.325" y2="0.849999" />
<line x1="0.345" y1="1.005" x2="0.345" y2="0.85" />
<line x1="0.26" y1="0.8" x2="0.11" y2="0.745" />
<line x1="0.26" y1="0.815" x2="0.11" y2="0.76" />
<line x1="0.0847821" y1="0.737265" x2="0.0873174" y2="0.741515" />
<line x1="0.0873174" y1="0.741515" x2="0.0902635" y2="0.745492" />
<line x1="0.0902635" y1="0.745492" x2="0.0935909" y2="0.749155" />
<line x1="0.0935909" y1="0.749155" x2="0.0972666" y2="0.752469" />
<line x1="0.0972666" y1="0.752469" x2="0.101254" y2="0.7554" />
<line x1="0.101254" y1="0.7554" x2="0.105513" y2="0.757919" />
<line x1="0.105513" y1="0.757919" x2="0.110003" y2="0.760002" />
<line x1="0.0900155" y1="0.733277" x2="0.0934794" y2="0.73644" />
<line x1="0.0934794" y1="0.73644" x2="0.097248" y2="0.739218" />
<line x1="0.097248" y1="0.739218" x2="0.101286" y2="0.741586" />
<line x1="0.101286" y1="0.741586" x2="0.105558" y2="0.743524" />
<line x1="0.105558" y1="0.743524" x2="0.11" y2="0.745001" />
<line x1="0.325" y1="0.96" x2="0.325" y2="0.985" />
<line x1="0.145" y1="0.88" x2="0.325" y2="0.945" />
<line x1="0.325" y1="0.96" x2="0.142683" y2="0.894085" />
<line x1="0.145" y1="0.88" x2="0.144439" y2="0.879873" />
<line x1="0.144439" y1="0.879873" x2="0.143869" y2="0.879798" />
<line x1="0.143869" y1="0.879798" x2="0.143297" y2="0.879776" />
<line x1="0.143297" y1="0.879776" x2="0.142723" y2="0.879807" />
<line x1="0.142723" y1="0.879807" x2="0.142155" y2="0.87989" />
<line x1="0.142155" y1="0.87989" x2="0.141596" y2="0.880026" />
<line x1="0.141596" y1="0.880026" x2="0.141052" y2="0.880213" />
<line x1="0.141052" y1="0.880213" x2="0.140529" y2="0.880449" />
<line x1="0.140529" y1="0.880449" x2="0.140029" y2="0.880733" />
<line x1="0.140029" y1="0.880733" x2="0.139558" y2="0.881061" />
<line x1="0.139558" y1="0.881061" x2="0.139119" y2="0.881432" />
<line x1="0.139119" y1="0.881432" x2="0.138716" y2="0.881841" />
<line x1="0.138716" y1="0.881841" x2="0.138352" y2="0.882286" />
<line x1="0.138352" y1="0.882286" x2="0.138031" y2="0.882763" />
<line x1="0.138031" y1="0.882763" x2="0.137756" y2="0.883266" />
<line x1="0.137756" y1="0.883266" x2="0.137527" y2="0.883794" />
<line x1="0.137527" y1="0.883794" x2="0.137349" y2="0.884339" />
<line x1="0.137349" y1="0.884341" x2="0.137228" y2="0.885136" />
<line x1="0.137228" y1="0.885136" x2="0.137182" y2="0.885938" />
<line x1="0.137182" y1="0.885938" x2="0.13721" y2="0.886742" />
<line x1="0.13721" y1="0.886742" x2="0.137313" y2="0.887539" />
<line x1="0.137313" y1="0.887539" x2="0.13749" y2="0.888323" />
<line x1="0.13749" y1="0.888323" x2="0.137739" y2="0.889088" />
<line x1="0.137739" y1="0.889088" x2="0.138058" y2="0.889826" />
<line x1="0.138058" y1="0.889826" x2="0.138444" y2="0.890531" />
<line x1="0.138444" y1="0.890531" x2="0.138893" y2="0.891198" />
<line x1="0.138893" y1="0.891198" x2="0.139403" y2="0.891819" />
<line x1="0.139403" y1="0.891819" x2="0.139969" y2="0.892391" />
<line x1="0.139969" y1="0.892391" x2="0.140585" y2="0.892907" />
<line x1="0.140585" y1="0.892907" x2="0.141248" y2="0.893365" />
<line x1="0.141248" y1="0.893365" x2="0.141949" y2="0.893759" />
<line x1="0.141949" y1="0.893759" x2="0.142683" y2="0.894085" />
<line x1="0.03" y1="1.025" x2="0.0296516" y2="1.02247" />
<line x1="0.0296516" y1="1.02247" x2="0.0290725" y2="1.01999" />
<line x1="0.0290725" y1="1.01999" x2="0.0282654" y2="1.01757" />
<line x1="0.0282654" y1="1.01757" x2="0.0272381" y2="1.01523" />
<line x1="0.0272381" y1="1.01523" x2="0.0260022" y2="1.01301" />
<line x1="0.0260022" y1="1.01301" x2="0.0245629" y2="1.0109" />
<line x1="0.0245629" y1="1.0109" x2="0.0229388" y2="1.00894" />
<line x1="0.0229388" y1="1.00894" x2="0.0211367" y2="1.00713" />
<line x1="0.0211367" y1="1.00713" x2="0.0191753" y2="1.00549" />
<line x1="0.0191753" y1="1.00549" x2="0.017076" y2="1.00405" />
<line x1="0.017076" y1="1.00405" x2="0.0148478" y2="1.0028" />
<line x1="0.0148478" y1="1.0028" x2="0.0125191" y2="1.00177" />
<line x1="0.0125191" y1="1.00177" x2="0.0100999" y2="1.00095" />
<line x1="0.0100999" y1="1.00095" x2="0.00762113" y2="1.00037" />
<line x1="0.00762113" y1="1.00037" x2="0.00509333" y2="1.00001" />
<line x1="0.00509333" y1="1.00001" x2="0.00254338" y2="0.999887" />
<line x1="0.00254338" y1="0.999887" x2="3.84783e-06" y2="1" />
<line x1="0.03" y1="1.025" x2="0.03" y2="1.125" />
<line x1="0.03" y1="1.125" x2="0.405" y2="1.265" />
<line x1="0.34" y1="1.255" x2="0" y2="1.12941" />
<line x1="0.405" y1="1.265" x2="0.415" y2="1.265" />
<line x1="0.415" y1="1.305" x2="0.355" y2="1.305" />
<line x1="0.34" y1="1.255" x2="0.34" y2="1.29" />
<line x1="0.34" y1="1.29" x2="0.340064" y2="1.29138" />
<line x1="0.340064" y1="1.29138" x2="0.340255" y2="1.29276" />
<line x1="0.340255" y1="1.29276" x2="0.340572" y2="1.2941" />
<line x1="0.340572" y1="1.2941" x2="0.341013" y2="1.29542" />
<line x1="0.341013" y1="1.29542" x2="0.341572" y2="1.29669" />
<line x1="0.341572" y1="1.29669" x2="0.342246" y2="1.2979" />
<line x1="0.342246" y1="1.2979" x2="0.34303" y2="1.29904" />
<line x1="0.34303" y1="1.29904" x2="0.343914" y2="1.30011" />
<line x1="0.343914" y1="1.30011" x2="0.344895" y2="1.30109" />
<line x1="0.344895" y1="1.30109" x2="0.345959" y2="1.30197" />
<line x1="0.345959" y1="1.30197" x2="0.347103" y2="1.30275" />
<line x1="0.347103" y1="1.30275" x2="0.348315" y2="1.30343" />
<line x1="0.348315" y1="1.30343" x2="0.349581" y2="1.30399" />
<line x1="0.349581" y1="1.30399" x2="0.350896" y2="1.30443" />
<line x1="0.350896" y1="1.30443" x2="0.352243" y2="1.30474" />
<line x1="0.352243" y1="1.30474" x2="0.353616" y2="1.30494" />
<line x1="0.353616" y1="1.30494" x2="0.354999" y2="1.305" />
<line x1="0.414998" y1="1.305" x2="0.416845" y2="1.30491" />
<line x1="0.416845" y1="1.30491" x2="0.418676" y2="1.30466" />
<line x1="0.418676" y1="1.30466" x2="0.420472" y2="1.30424" />
<line x1="0.420472" y1="1.30424" x2="0.422226" y2="1.30365" />
<line x1="0.422226" y1="1.30365" x2="0.423913" y2="1.3029" />
<line x1="0.423913" y1="1.3029" x2="0.425529" y2="1.302" />
<line x1="0.425529" y1="1.302" x2="0.427054" y2="1.30096" />
<line x1="0.427054" y1="1.30096" x2="0.428474" y2="1.29978" />
<line x1="0.428474" y1="1.29978" x2="0.429781" y2="1.29847" />
<line x1="0.429781" y1="1.29847" x2="0.43096" y2="1.29705" />
<line x1="0.43096" y1="1.29705" x2="0.432005" y2="1.29553" />
<line x1="0.432005" y1="1.29553" x2="0.432904" y2="1.29391" />
<line x1="0.432904" y1="1.29391" x2="0.43365" y2="1.29222" />
<line x1="0.43365" y1="1.29222" x2="0.434237" y2="1.29047" />
<line x1="0.434237" y1="1.29047" x2="0.434659" y2="1.28867" />
<line x1="0.434659" y1="1.28867" x2="0.434915" y2="1.28684" />
<line x1="0.434915" y1="1.28684" x2="0.435" y2="1.285" />
<line x1="0.435" y1="1.285" x2="0.434915" y2="1.28316" />
<line x1="0.434915" y1="1.28316" x2="0.434659" y2="1.28133" />
<line x1="0.434659" y1="1.28133" x2="0.434236" y2="1.27953" />
<line x1="0.434236" y1="1.27953" x2="0.433649" y2="1.27778" />
<line x1="0.433649" y1="1.27778" x2="0.432903" y2="1.27609" />
<line x1="0.432903" y1="1.27609" x2="0.432004" y2="1.27447" />
<line x1="0.432004" y1="1.27447" x2="0.430959" y2="1.27295" />
<line x1="0.430959" y1="1.27295" x2="0.42978" y2="1.27153" />
<line x1="0.42978" y1="1.27153" x2="0.428472" y2="1.27022" />
<line x1="0.428472" y1="1.27022" x2="0.427053" y2="1.26904" />
<line x1="0.427053" y1="1.26904" x2="0.425527" y2="1.268" />
<line x1="0.425527" y1="1.268" x2="0.423912" y2="1.2671" />
<line x1="0.423912" y1="1.2671" x2="0.422224" y2="1.26635" />
<line x1="0.422224" y1="1.26635" x2="0.420471" y2="1.26576" />
<line x1="0.420471" y1="1.26576" x2="0.418674" y2="1.26534" />
<line x1="0.418674" y1="1.26534" x2="0.416843" y2="1.26509" />
<line x1="0.416843" y1="1.26509" x2="0.415" y2="1.265" />
<line x1="0.4" y1="1.18" x2="0.398157" y2="1.18009" />
<line x1="0.398157" y1="1.18009" x2="0.396326" y2="1.18034" />
<line x1="0.396326" y1="1.18034" x2="0.394529" y2="1.18076" />
<line x1="0.394529" y1="1.18076" x2="0.392776" y2="1.18135" />
<line x1="0.392776" y1="1.18135" x2="0.391088" y2="1.1821" />
<line x1="0.391088" y1="1.1821" x2="0.389473" y2="1.183" />
<line x1="0.389473" y1="1.183" x2="0.387947" y2="1.18404" />
<line x1="0.387947" y1="1.18404" x2="0.386528" y2="1.18522" />
<line x1="0.386528" y1="1.18522" x2="0.38522" y2="1.18653" />
<line x1="0.38522" y1="1.18653" x2="0.384041" y2="1.18795" />
<line x1="0.384041" y1="1.18795" x2="0.382996" y2="1.18947" />
<line x1="0.382996" y1="1.18947" x2="0.382097" y2="1.19109" />
<line x1="0.382097" y1="1.19109" x2="0.381351" y2="1.19277" />
<line x1="0.381351" y1="1.19277" x2="0.380764" y2="1.19453" />
<line x1="0.380764" y1="1.19453" x2="0.380341" y2="1.19632" />
<line x1="0.380341" y1="1.19632" x2="0.380085" y2="1.19815" />
<line x1="0.380085" y1="1.19815" x2="0.38" y2="1.2" />
<line x1="0.38" y1="1.2" x2="0.380085" y2="1.20185" />
<line x1="0.380085" y1="1.20185" x2="0.380341" y2="1.20368" />
<line x1="0.380341" y1="1.20368" x2="0.380763" y2="1.20547" />
<line x1="0.380763" y1="1.20547" x2="0.38135" y2="1.20723" />
<line x1="0.38135" y1="1.20723" x2="0.382096" y2="1.20891" />
<line x1="0.382096" y1="1.20891" x2="0.382995" y2="1.21053" />
<line x1="0.382995" y1="1.21053" x2="0.38404" y2="1.21205" />
<line x1="0.38404" y1="1.21205" x2="0.385219" y2="1.21347" />
<line x1="0.385219" y1="1.21347" x2="0.386526" y2="1.21478" />
<line x1="0.386526" y1="1.21478" x2="0.387946" y2="1.21596" />
<line x1="0.387946" y1="1.21596" x2="0.389471" y2="1.217" />
<line x1="0.389471" y1="1.217" x2="0.391087" y2="1.2179" />
<line x1="0.391087" y1="1.2179" x2="0.392774" y2="1.21865" />
<line x1="0.392774" y1="1.21865" x2="0.394528" y2="1.21924" />
<line x1="0.394528" y1="1.21924" x2="0.396324" y2="1.21966" />
<line x1="0.396324" y1="1.21966" x2="0.398155" y2="1.21991" />
<line x1="0.398155" y1="1.21991" x2="0.399998" y2="1.22" />
<line x1="0.400002" y1="1.22" x2="0.401845" y2="1.21991" />
<line x1="0.401845" y1="1.21991" x2="0.403676" y2="1.21966" />
<line x1="0.403676" y1="1.21966" x2="0.405472" y2="1.21924" />
<line x1="0.405472" y1="1.21924" x2="0.407226" y2="1.21865" />
<line x1="0.407226" y1="1.21865" x2="0.408913" y2="1.2179" />
<line x1="0.408913" y1="1.2179" x2="0.410529" y2="1.217" />
<line x1="0.410529" y1="1.217" x2="0.412054" y2="1.21596" />
<line x1="0.412054" y1="1.21596" x2="0.413474" y2="1.21478" />
<line x1="0.413474" y1="1.21478" x2="0.414781" y2="1.21347" />
<line x1="0.414781" y1="1.21347" x2="0.41596" y2="1.21205" />
<line x1="0.41596" y1="1.21205" x2="0.417005" y2="1.21053" />
<line x1="0.417005" y1="1.21053" x2="0.417904" y2="1.20891" />
<line x1="0.417904" y1="1.20891" x2="0.41865" y2="1.20722" />
<line x1="0.41865" y1="1.20722" x2="0.419237" y2="1.20547" />
<line x1="0.419237" y1="1.20547" x2="0.419659" y2="1.20367" />
<line x1="0.419659" y1="1.20367" x2="0.419915" y2="1.20184" />
<line x1="0.419915" y1="1.20184" x2="0.42" y2="1.2" />
<line x1="0.42" y1="0.985" x2="0.419957" y2="0.984078" />
<line x1="0.419957" y1="0.984078" x2="0.41983" y2="0.983163" />
<line x1="0.41983" y1="0.983163" x2="0.419618" y2="0.982265" />
<line x1="0.419618" y1="0.982265" x2="0.419324" y2="0.981388" />
<line x1="0.419324" y1="0.981388" x2="0.418952" y2="0.980544" />
<line x1="0.418952" y1="0.980544" x2="0.418502" y2="0.979736" />
<line x1="0.418502" y1="0.979736" x2="0.417979" y2="0.978974" />
<line x1="0.417979" y1="0.978974" x2="0.41739" y2="0.978264" />
<line x1="0.41739" y1="0.978264" x2="0.416736" y2="0.97761" />
<line x1="0.416736" y1="0.97761" x2="0.416026" y2="0.977021" />
<line x1="0.416026" y1="0.977021" x2="0.415264" y2="0.976498" />
<line x1="0.415264" y1="0.976498" x2="0.414456" y2="0.976048" />
<line x1="0.414456" y1="0.976048" x2="0.413612" y2="0.975676" />
<line x1="0.413612" y1="0.975676" x2="0.412735" y2="0.975382" />
<line x1="0.412735" y1="0.975382" x2="0.411837" y2="0.97517" />
<line x1="0.411837" y1="0.97517" x2="0.410922" y2="0.975043" />
<line x1="0.410922" y1="0.975043" x2="0.41" y2="0.975" />
<line x1="0.41" y1="0.975" x2="0.409078" y2="0.975043" />
<line x1="0.409078" y1="0.975043" x2="0.408163" y2="0.97517" />
<line x1="0.408163" y1="0.97517" x2="0.407265" y2="0.975381" />
<line x1="0.407265" y1="0.975381" x2="0.406388" y2="0.975675" />
<line x1="0.406388" y1="0.975675" x2="0.405544" y2="0.976048" />
<line x1="0.405544" y1="0.976048" x2="0.404736" y2="0.976498" />
<line x1="0.404736" y1="0.976498" x2="0.403974" y2="0.97702" />
<line x1="0.403974" y1="0.97702" x2="0.403264" y2="0.977609" />
<line x1="0.403264" y1="0.977609" x2="0.40261" y2="0.978263" />
<line x1="0.40261" y1="0.978263" x2="0.402021" y2="0.978973" />
<line x1="0.402021" y1="0.978973" x2="0.401498" y2="0.979736" />
<line x1="0.401498" y1="0.979736" x2="0.401048" y2="0.980543" />
<line x1="0.401048" y1="0.980543" x2="0.400676" y2="0.981387" />
<line x1="0.400676" y1="0.981387" x2="0.400382" y2="0.982264" />
<line x1="0.400382" y1="0.982264" x2="0.40017" y2="0.983162" />
<line x1="0.40017" y1="0.983162" x2="0.400043" y2="0.984077" />
<line x1="0.400043" y1="0.984077" x2="0.4" y2="0.985001" />
<line x1="0.42" y1="0.985" x2="0.42" y2="1.2" />
<line x1="0.4" y1="0.985" x2="0.4" y2="1.095" />
<line x1="0.4" y1="1.11" x2="0.4" y2="1.18" />
<line x1="0.19" y1="1.015" x2="0.4" y2="1.095" />
<line x1="0.4" y1="1.11" x2="0.187683" y2="1.02909" />
<line x1="0.19" y1="1.015" x2="0.189439" y2="1.01487" />
<line x1="0.189439" y1="1.01487" x2="0.188869" y2="1.0148" />
<line x1="0.188869" y1="1.0148" x2="0.188297" y2="1.01478" />
<line x1="0.188297" y1="1.01478" x2="0.187723" y2="1.01481" />
<line x1="0.187723" y1="1.01481" x2="0.187155" y2="1.01489" />
<line x1="0.187155" y1="1.01489" x2="0.186596" y2="1.01503" />
<line x1="0.186596" y1="1.01503" x2="0.186052" y2="1.01521" />
<line x1="0.186052" y1="1.01521" x2="0.185529" y2="1.01545" />
<line x1="0.185529" y1="1.01545" x2="0.185029" y2="1.01573" />
<line x1="0.185029" y1="1.01573" x2="0.184558" y2="1.01606" />
<line x1="0.184558" y1="1.01606" x2="0.184119" y2="1.01643" />
<line x1="0.184119" y1="1.01643" x2="0.183716" y2="1.01684" />
<line x1="0.183716" y1="1.01684" x2="0.183352" y2="1.01729" />
<line x1="0.183352" y1="1.01729" x2="0.183031" y2="1.01776" />
<line x1="0.183031" y1="1.01776" x2="0.182756" y2="1.01827" />
<line x1="0.182756" y1="1.01827" x2="0.182527" y2="1.01879" />
<line x1="0.182527" y1="1.01879" x2="0.182349" y2="1.01934" />
<line x1="0.182349" y1="1.01934" x2="0.182228" y2="1.02014" />
<line x1="0.182228" y1="1.02014" x2="0.182182" y2="1.02094" />
<line x1="0.182182" y1="1.02094" x2="0.18221" y2="1.02174" />
<line x1="0.18221" y1="1.02174" x2="0.182313" y2="1.02254" />
<line x1="0.182313" y1="1.02254" x2="0.18249" y2="1.02332" />
<line x1="0.18249" y1="1.02332" x2="0.182739" y2="1.02409" />
<line x1="0.182739" y1="1.02409" x2="0.183058" y2="1.02483" />
<line x1="0.183058" y1="1.02483" x2="0.183444" y2="1.02553" />
<line x1="0.183444" y1="1.02553" x2="0.183893" y2="1.0262" />
<line x1="0.183893" y1="1.0262" x2="0.184403" y2="1.02682" />
<line x1="0.184403" y1="1.02682" x2="0.184969" y2="1.02739" />
<line x1="0.184969" y1="1.02739" x2="0.185585" y2="1.02791" />
<line x1="0.185585" y1="1.02791" x2="0.186248" y2="1.02837" />
<line x1="0.186248" y1="1.02837" x2="0.186949" y2="1.02876" />
<line x1="0.186949" y1="1.02876" x2="0.187683" y2="1.02909" />
<line x1="0" y1="0.5" x2="0" y2="1" />
<line x1="1" y1="0" x2="1" y2="1.5" />
<line x1="1" y1="1.5" x2="0" y2="1.5" />
<line x1="0" y1="1.12941" x2="0" y2="1.5" />
<line x1="0" y1="0" x2="0" y2="0.5" />
<line x1="0" y1="0" x2="1" y2="0" />
<line x1="0.045" y1="0.5" x2="0.0449893" y2="0.49977" />
<line x1="0.0449893" y1="0.49977" x2="0.0449574" y2="0.499541" />
<line x1="0.0449574" y1="0.499541" x2="0.0449046" y2="0.499316" />
<line x1="0.0449046" y1="0.499316" x2="0.0448311" y2="0.499097" />
<line x1="0.0448311" y1="0.499097" x2="0.0447379" y2="0.498886" />
<line x1="0.0447379" y1="0.498886" x2="0.0446255" y2="0.498684" />
<line x1="0.0446255" y1="0.498684" x2="0.0444948" y2="0.498493" />
<line x1="0.0444948" y1="0.498493" x2="0.0443475" y2="0.498316" />
<line x1="0.0443475" y1="0.498316" x2="0.044184" y2="0.498153" />
<line x1="0.044184" y1="0.498153" x2="0.0440066" y2="0.498005" />
<line x1="0.0440066" y1="0.498005" x2="0.0438159" y2="0.497875" />
<line x1="0.0438159" y1="0.497875" x2="0.043614" y2="0.497762" />
<line x1="0.043614" y1="0.497762" x2="0.043403" y2="0.497669" />
<line x1="0.043403" y1="0.497669" x2="0.0431838" y2="0.497595" />
<line x1="0.0431838" y1="0.497595" x2="0.0429593" y2="0.497543" />
<line x1="0.0429593" y1="0.497543" x2="0.0427304" y2="0.497511" />
<line x1="0.0427304" y1="0.497511" x2="0.0425" y2="0.4975" />
<line x1="0.0425" y1="0.4975" x2="0.0422696" y2="0.497511" />
<line x1="0.0422696" y1="0.497511" x2="0.0420407" y2="0.497543" />
<line x1="0.0420407" y1="0.497543" x2="0.0418162" y2="0.497595" />
<line x1="0.0418162" y1="0.497595" x2="0.041597" y2="0.497669" />
<line x1="0.041597" y1="0.497669" x2="0.041386" y2="0.497762" />
<line x1="0.041386" y1="0.497762" x2="0.0411841" y2="0.497874" />
<line x1="0.0411841" y1="0.497874" x2="0.0409934" y2="0.498005" />
<line x1="0.0409934" y1="0.498005" x2="0.040816" y2="0.498152" />
<line x1="0.040816" y1="0.498152" x2="0.0406525" y2="0.498316" />
<line x1="0.0406525" y1="0.498316" x2="0.0405052" y2="0.498493" />
<line x1="0.0405052" y1="0.498493" x2="0.0403745" y2="0.498684" />
<line x1="0.0403745" y1="0.498684" x2="0.0402621" y2="0.498886" />
<line x1="0.0402621" y1="0.498886" x2="0.0401689" y2="0.499097" />
<line x1="0.0401689" y1="0.499097" x2="0.0400954" y2="0.499316" />
<line x1="0.0400954" y1="0.499316" x2="0.0400426" y2="0.49954" />
<line x1="0.0400426" y1="0.49954" x2="0.0400107" y2="0.499769" />
<line x1="0.0400107" y1="0.499769" x2="0.04" y2="0.5" />
</g>
</svg>
