<svg width="180px" height="180px" viewBox="0 0 0.1425 0.255" version="1.1" xmlns="http://www.w3.org/2000/svg">
<g stroke="black" stroke-width="0.000708333" fill="none">
<line x1="0" y1="0.205" x2="0.01" y2="0.205" />
<line x1="0" y1="0.2075" x2="0.0125" y2="0.2075" />
<line x1="0.0125" y1="0.2075" x2="0.02" y2="0.1925" />
<line x1="0.0175" y1="0.19" x2="0.01" y2="0.205" />
<line x1="0.0175" y1="0.19" x2="0.0175" y2="0.1725" />
<line x1="0.02" y1="0.1725" x2="0.02" y2="0.1925" />
<line x1="0.02" y1="0.165" x2="0.01" y2="0.165" />
<line x1="0.01" y1="0.165" x2="0.01" y2="0.1" />
<line x1="0.01" y1="0.1" x2="0.0075" y2="0.1" />
<line x1="0" y1="0" x2="0.1425" y2="0" />
<line x1="0.1425" y1="0" x2="0.1425" y2="0.255" />
<line x1="0.1425" y1="0.255" x2="0" y2="0.255" />
<line x1="0" y1="0.2075" x2="0" y2="0.255" />
<line x1="0" y1="0.205" x2="0" y2="0" />
<line x1="0.0125" y1="0.0925" x2="0.028125" y2="0.0925" />
<line x1="0.028125" y1="0.0925" x2="0.028125" y2="0.1125" />
<line x1="0.0125" y1="0.0925" x2="0.0125" y2="0.1125" />
<line x1="0.0125" y1="0.1125" x2="0.028125" y2="0.1125" />
<line x1="0.028125" y1="0.12" x2="0.0125" y2="0.12" />
<line x1="0.0125" y1="0.12" x2="0.0125" y2="0.1375" />
<line x1="0.0125" y1="0.1375" x2="0.028125" y2="0.1375" />
<line x1="0.028125" y1="0.12" x2="0.028125" y2="0.1375" />
<line x1="0.025" y1="0.1425" x2="0.0125" y2="0.1425" />
<line x1="0.0125" y1="0.1425" x2="0.0125" y2="0.1575" />
<line x1="0.0125" y1="0.1575" x2="0.025" y2="0.1575" />
<line x1="0.025" y1="0.1425" x2="0.025" y2="0.1575" />
<line x1="0" y1="0.205" x2="0" y2="0.2075" />
<line x1="0.0075" y1="0.1" x2="0.0075" y2="0.171875" />
<line x1="0.0075" y1="0.171875" x2="0.00750266" y2="0.171933" />
<line x1="0.00750266" y1="0.171933" x2="0.00751064" y2="0.17199" />
<line x1="0.00751064" y1="0.17199" x2="0.00752384" y2="0.172046" />
<line x1="0.00752384" y1="0.172046" x2="0.0075422" y2="0.172101" />
<line x1="0.0075422" y1="0.172101" x2="0.00756549" y2="0.172154" />
<line x1="0.00756549" y1="0.172154" x2="0.0075936" y2="0.172204" />
<line x1="0.0075936" y1="0.172204" x2="0.00762626" y2="0.172252" />
<line x1="0.00762626" y1="0.172252" x2="0.00766309" y2="0.172296" />
<line x1="0.00766309" y1="0.172296" x2="0.00770395" y2="0.172337" />
<line x1="0.00770395" y1="0.172337" x2="0.00774831" y2="0.172374" />
<line x1="0.00774831" y1="0.172374" x2="0.00779597" y2="0.172406" />
<line x1="0.00779597" y1="0.172406" x2="0.00784645" y2="0.172435" />
<line x1="0.00784645" y1="0.172435" x2="0.0078992" y2="0.172458" />
<line x1="0.0078992" y1="0.172458" x2="0.00795399" y2="0.172476" />
<line x1="0.00795399" y1="0.172476" x2="0.00801011" y2="0.172489" />
<line x1="0.00801011" y1="0.172489" x2="0.00806734" y2="0.172497" />
<line x1="0.00806734" y1="0.172497" x2="0.00812494" y2="0.1725" />
<line x1="0.008125" y1="0.1725" x2="0.01" y2="0.1725" />
<line x1="0.018125" y1="0.171875" x2="0.019375" y2="0.171875" />
<line x1="0.02" y1="0.1725" x2="0.0199973" y2="0.172442" />
<line x1="0.0199973" y1="0.172442" x2="0.0199893" y2="0.172385" />
<line x1="0.0199893" y1="0.172385" x2="0.0199761" y2="0.172329" />
<line x1="0.0199761" y1="0.172329" x2="0.0199578" y2="0.172274" />
<line x1="0.0199578" y1="0.172274" x2="0.0199345" y2="0.172222" />
<line x1="0.0199345" y1="0.172222" x2="0.0199064" y2="0.172171" />
<line x1="0.0199064" y1="0.172171" x2="0.0198737" y2="0.172123" />
<line x1="0.0198737" y1="0.172123" x2="0.0198369" y2="0.172079" />
<line x1="0.0198369" y1="0.172079" x2="0.019796" y2="0.172038" />
<line x1="0.019796" y1="0.172038" x2="0.0197516" y2="0.172001" />
<line x1="0.0197516" y1="0.172001" x2="0.019704" y2="0.171969" />
<line x1="0.019704" y1="0.171969" x2="0.0196535" y2="0.171941" />
<line x1="0.0196535" y1="0.171941" x2="0.0196007" y2="0.171917" />
<line x1="0.0196007" y1="0.171917" x2="0.019546" y2="0.171899" />
<line x1="0.019546" y1="0.171899" x2="0.0194898" y2="0.171886" />
<line x1="0.0194898" y1="0.171886" x2="0.0194326" y2="0.171878" />
<line x1="0.0194326" y1="0.171878" x2="0.019375" y2="0.171875" />
<line x1="0.018125" y1="0.171875" x2="0.0180674" y2="0.171878" />
<line x1="0.0180674" y1="0.171878" x2="0.0180102" y2="0.171886" />
<line x1="0.0180102" y1="0.171886" x2="0.017954" y2="0.171899" />
<line x1="0.017954" y1="0.171899" x2="0.0178993" y2="0.171917" />
<line x1="0.0178993" y1="0.171917" x2="0.0178465" y2="0.17194" />
<line x1="0.0178465" y1="0.17194" x2="0.017796" y2="0.171969" />
<line x1="0.017796" y1="0.171969" x2="0.0177484" y2="0.172001" />
<line x1="0.0177484" y1="0.172001" x2="0.017704" y2="0.172038" />
<line x1="0.017704" y1="0.172038" x2="0.0176631" y2="0.172079" />
<line x1="0.0176631" y1="0.172079" x2="0.0176263" y2="0.172123" />
<line x1="0.0176263" y1="0.172123" x2="0.0175936" y2="0.172171" />
<line x1="0.0175936" y1="0.172171" x2="0.0175655" y2="0.172221" />
<line x1="0.0175655" y1="0.172221" x2="0.0175422" y2="0.172274" />
<line x1="0.0175422" y1="0.172274" x2="0.0175239" y2="0.172329" />
<line x1="0.0175239" y1="0.172329" x2="0.0175107" y2="0.172385" />
<line x1="0.0175107" y1="0.172385" x2="0.0175027" y2="0.172442" />
<line x1="0.0175027" y1="0.172442" x2="0.0175" y2="0.1725" />
<line x1="0.0156252" y1="0.1675" x2="0.0154243" y2="0.167533" />
<line x1="0.0154243" y1="0.167533" x2="0.0152276" y2="0.167587" />
<line x1="0.0152276" y1="0.167587" x2="0.0150372" y2="0.167659" />
<line x1="0.0150372" y1="0.167659" x2="0.014855" y2="0.16775" />
<line x1="0.014855" y1="0.16775" x2="0.0146828" y2="0.167859" />
<line x1="0.0146828" y1="0.167859" x2="0.0145223" y2="0.167984" />
<line x1="0.0145223" y1="0.167984" x2="0.014375" y2="0.168125" />
<line x1="0.015625" y1="0.1675" x2="0.02" y2="0.1675" />
<line x1="0.0199999" y1="0.1675" x2="0.0200577" y2="0.167497" />
<line x1="0.0200577" y1="0.167497" x2="0.0201149" y2="0.167489" />
<line x1="0.0201149" y1="0.167489" x2="0.020171" y2="0.167476" />
<line x1="0.020171" y1="0.167476" x2="0.0202258" y2="0.167458" />
<line x1="0.0202258" y1="0.167458" x2="0.0202785" y2="0.167434" />
<line x1="0.0202785" y1="0.167434" x2="0.020329" y2="0.167406" />
<line x1="0.020329" y1="0.167406" x2="0.0203767" y2="0.167374" />
<line x1="0.0203767" y1="0.167374" x2="0.0204211" y2="0.167337" />
<line x1="0.0204211" y1="0.167337" x2="0.0204619" y2="0.167296" />
<line x1="0.0204619" y1="0.167296" x2="0.0204987" y2="0.167252" />
<line x1="0.0204987" y1="0.167252" x2="0.0205314" y2="0.167204" />
<line x1="0.0205314" y1="0.167204" x2="0.0205595" y2="0.167153" />
<line x1="0.0205595" y1="0.167153" x2="0.0205828" y2="0.167101" />
<line x1="0.0205828" y1="0.167101" x2="0.0206012" y2="0.167046" />
<line x1="0.0206012" y1="0.167046" x2="0.0206144" y2="0.16699" />
<line x1="0.0206144" y1="0.16699" x2="0.0206223" y2="0.166933" />
<line x1="0.0206223" y1="0.166933" x2="0.020625" y2="0.166875" />
<line x1="0.020625" y1="0.166875" x2="0.020625" y2="0.165625" />
<line x1="0.020625" y1="0.165625" x2="0.0206223" y2="0.165567" />
<line x1="0.0206223" y1="0.165567" x2="0.0206143" y2="0.16551" />
<line x1="0.0206143" y1="0.16551" x2="0.0206011" y2="0.165454" />
<line x1="0.0206011" y1="0.165454" x2="0.0205828" y2="0.165399" />
<line x1="0.0205828" y1="0.165399" x2="0.0205595" y2="0.165347" />
<line x1="0.0205595" y1="0.165347" x2="0.0205314" y2="0.165296" />
<line x1="0.0205314" y1="0.165296" x2="0.0204987" y2="0.165248" />
<line x1="0.0204987" y1="0.165248" x2="0.0204619" y2="0.165204" />
<line x1="0.0204619" y1="0.165204" x2="0.020421" y2="0.165163" />
<line x1="0.020421" y1="0.165163" x2="0.0203766" y2="0.165126" />
<line x1="0.0203766" y1="0.165126" x2="0.020329" y2="0.165094" />
<line x1="0.020329" y1="0.165094" x2="0.0202785" y2="0.165066" />
<line x1="0.0202785" y1="0.165066" x2="0.0202257" y2="0.165042" />
<line x1="0.0202257" y1="0.165042" x2="0.020171" y2="0.165024" />
<line x1="0.020171" y1="0.165024" x2="0.0201148" y2="0.165011" />
<line x1="0.0201148" y1="0.165011" x2="0.0200576" y2="0.165003" />
<line x1="0.0200576" y1="0.165003" x2="0.02" y2="0.165" />
<line x1="0.0100001" y1="0.1725" x2="0.0101597" y2="0.172488" />
<line x1="0.0101597" y1="0.172488" x2="0.0103176" y2="0.17246" />
<line x1="0.0103176" y1="0.17246" x2="0.0104721" y2="0.172418" />
<line x1="0.0104721" y1="0.172418" x2="0.0106218" y2="0.17236" />
<line x1="0.0106218" y1="0.17236" x2="0.0107652" y2="0.172288" />
<line x1="0.0107652" y1="0.172288" x2="0.0109009" y2="0.172203" />
<line x1="0.0109009" y1="0.172203" x2="0.0110276" y2="0.172105" />
<line x1="0.0110276" y1="0.172105" x2="0.0111444" y2="0.171996" />
<line x1="0.0111444" y1="0.171996" x2="0.01125" y2="0.171875" />
<line x1="0.01125" y1="0.171875" x2="0.014375" y2="0.168125" />
</g>
</svg>
